name rise44.9368peak50.754fall52.0217.mot
datacolumns 19
datarows 59
range 18.799935 18.896603
endheader
time	ground_force1_vx	ground_force1_vy	ground_force1_vz	ground_force1_px	ground_force1_py	ground_force1_pz	ground_force2_vx	ground_force2_vy	ground_force2_vz	ground_force2_px	ground_force2_py	ground_force2_pz	ground_torque1_x	ground_torque1_y	ground_torque1_z	ground_torque2_x	ground_torque2_y	ground_torque2_z	
18.799935	-77.639868	469.122986	19.302459	0.060873	0.000000	0.149122	57.902157	449.547296	-24.662849	0.398090	0.000000	-0.060099	0.000000	24.132310	0.000000	0.000000	-10.815149	0.000000	
18.801600	-77.172947	459.736115	18.488543	0.059856	0.000000	0.148927	59.221173	455.582355	-25.894355	0.397203	0.000000	-0.060272	0.000000	23.864594	0.000000	0.000000	-11.557236	0.000000	
18.803266	-76.646811	450.273601	17.685379	0.058819	0.000000	0.148733	60.501306	461.568619	-27.119254	0.396290	0.000000	-0.060441	0.000000	23.583917	0.000000	0.000000	-12.294520	0.000000	
18.804929	-76.060958	440.742459	16.893676	0.057762	0.000000	0.148540	61.741112	467.507750	-28.336015	0.395354	0.000000	-0.060607	0.000000	23.290203	0.000000	0.000000	-13.025974	0.000000	
18.806599	-75.415037	431.150102	16.114114	0.056686	0.000000	0.148349	62.939273	473.401450	-29.543173	0.394396	0.000000	-0.060769	0.000000	22.983408	0.000000	0.000000	-13.750624	0.000000	
18.808267	-74.708851	421.504308	15.347341	0.055590	0.000000	0.148158	64.094592	479.251453	-30.739327	0.393417	0.000000	-0.060926	0.000000	22.663520	0.000000	0.000000	-14.467554	0.000000	
18.809929	-73.942352	411.813178	14.593973	0.054476	0.000000	0.147969	65.205993	485.059516	-31.923142	0.392419	0.000000	-0.061080	0.000000	22.330560	0.000000	0.000000	-15.175900	0.000000	
18.811596	-73.115639	402.085061	13.854597	0.053343	0.000000	0.147781	66.272517	490.827410	-33.093348	0.391404	0.000000	-0.061229	0.000000	21.984577	0.000000	0.000000	-15.874857	0.000000	
18.813264	-72.228957	392.328463	13.129770	0.052191	0.000000	0.147594	67.293323	496.556914	-34.248742	0.390373	0.000000	-0.061374	0.000000	21.625654	0.000000	0.000000	-16.563675	0.000000	
18.814937	-71.282693	382.551935	12.420022	0.051022	0.000000	0.147408	68.267680	502.249807	-35.388189	0.389328	0.000000	-0.061514	0.000000	21.253905	0.000000	0.000000	-17.241659	0.000000	
18.816598	-70.277376	372.763948	11.725859	0.049835	0.000000	0.147224	69.194969	507.907857	-36.510620	0.388271	0.000000	-0.061650	0.000000	20.869473	0.000000	0.000000	-17.908168	0.000000	
18.818270	-69.213675	362.972760	11.047766	0.048631	0.000000	0.147041	70.074679	513.532809	-37.615037	0.387202	0.000000	-0.061781	0.000000	20.472540	0.000000	0.000000	-18.562619	0.000000	
18.819932	-68.092405	353.186289	10.386210	0.047411	0.000000	0.146859	70.906406	519.126373	-38.700509	0.386123	0.000000	-0.061907	0.000000	20.063323	0.000000	0.000000	-19.204482	0.000000	
18.821595	-66.914533	343.411991	9.741646	0.046175	0.000000	0.146678	71.689849	524.690213	-39.766174	0.385036	0.000000	-0.062028	0.000000	19.642079	0.000000	0.000000	-19.833281	0.000000	
18.823266	-65.681187	333.656779	9.114513	0.044924	0.000000	0.146498	72.424812	530.225926	-40.811242	0.383942	0.000000	-0.062144	0.000000	19.209112	0.000000	0.000000	-20.448595	0.000000	
18.824936	-64.393670	323.926972	8.505244	0.043658	0.000000	0.146320	73.111195	535.735035	-41.834994	0.382842	0.000000	-0.062255	0.000000	18.764776	0.000000	0.000000	-21.050056	0.000000	
18.826601	-63.053477	314.228300	7.914258	0.042378	0.000000	0.146142	73.748999	541.218967	-42.836781	0.381738	0.000000	-0.062361	0.000000	18.309480	0.000000	0.000000	-21.637348	0.000000	
18.828263	-61.662314	304.565978	7.341964	0.041086	0.000000	0.145966	74.338322	546.679041	-43.816029	0.380632	0.000000	-0.062462	0.000000	17.843693	0.000000	0.000000	-22.210209	0.000000	
18.829931	-60.222115	294.944854	6.788752	0.039782	0.000000	0.145790	74.879351	552.116451	-44.772233	0.379524	0.000000	-0.062557	0.000000	17.367951	0.000000	0.000000	-22.768428	0.000000	
18.831596	-58.735066	285.369622	6.254989	0.038468	0.000000	0.145615	75.372367	557.532257	-45.704961	0.378416	0.000000	-0.062648	0.000000	16.882859	0.000000	0.000000	-23.311841	0.000000	
18.833265	-57.203618	275.845117	5.741008	0.037145	0.000000	0.145441	75.817738	562.927366	-46.613852	0.377308	0.000000	-0.062733	0.000000	16.389090	0.000000	0.000000	-23.840336	0.000000	
18.834937	-55.630495	266.376666	5.247094	0.035814	0.000000	0.145268	76.215914	568.302526	-47.498617	0.376203	0.000000	-0.062814	0.000000	15.887388	0.000000	0.000000	-24.353846	0.000000	
18.836602	-54.018700	256.970473	4.773473	0.034476	0.000000	0.145095	76.567426	573.658309	-48.359033	0.375101	0.000000	-0.062889	0.000000	15.378557	0.000000	0.000000	-24.852351	0.000000	
18.838263	-52.371499	247.634020	4.320294	0.033135	0.000000	0.144922	76.872882	578.995112	-49.194948	0.374004	0.000000	-0.062959	0.000000	14.863459	0.000000	0.000000	-25.335874	0.000000	
18.839934	-50.692402	238.376434	3.887617	0.031792	0.000000	0.144750	77.132963	584.313141	-50.006274	0.372911	0.000000	-0.063024	0.000000	14.342998	0.000000	0.000000	-25.804478	0.000000	
18.841600	-48.985120	229.208783	3.475396	0.030449	0.000000	0.144577	77.348415	589.612408	-50.792987	0.371825	0.000000	-0.063084	0.000000	13.818104	0.000000	0.000000	-26.258267	0.000000	
18.843267	-47.253510	220.144253	3.083471	0.029108	0.000000	0.144404	77.520050	594.892731	-51.555125	0.370746	0.000000	-0.063140	0.000000	13.289710	0.000000	0.000000	-26.697378	0.000000	
18.844931	-45.501505	211.198149	2.711561	0.027774	0.000000	0.144231	77.648737	600.153723	-52.292784	0.369675	0.000000	-0.063190	0.000000	12.758736	0.000000	0.000000	-27.121987	0.000000	
18.846595	-43.733024	202.387685	2.359265	0.026449	0.000000	0.144057	77.735399	605.394798	-53.006117	0.368612	0.000000	-0.063236	0.000000	12.226057	0.000000	0.000000	-27.532297	0.000000	
18.848264	-41.951882	193.731526	2.026073	0.025138	0.000000	0.143882	77.781010	610.615167	-53.695328	0.367560	0.000000	-0.063277	0.000000	11.692485	0.000000	0.000000	-27.928542	0.000000	
18.849930	-40.161686	185.249046	1.711385	0.023844	0.000000	0.143705	77.786586	615.813838	-54.360673	0.366517	0.000000	-0.063314	0.000000	11.158742	0.000000	0.000000	-28.310981	0.000000	
18.851601	-38.365739	176.959330	1.414535	0.022572	0.000000	0.143527	77.753186	620.989619	-55.002454	0.365485	0.000000	-0.063346	0.000000	10.625448	0.000000	0.000000	-28.679897	0.000000	
18.853263	-36.566961	168.879916	1.134838	0.021329	0.000000	0.143346	77.681903	626.141121	-55.621016	0.364464	0.000000	-0.063374	0.000000	10.093108	0.000000	0.000000	-29.035594	0.000000	
18.854934	-34.767819	161.025345	0.871628	0.020120	0.000000	0.143162	77.573860	631.266763	-56.216743	0.363455	0.000000	-0.063398	0.000000	9.562112	0.000000	0.000000	-29.378393	0.000000	
18.856603	-32.970308	153.405612	0.624318	0.018953	0.000000	0.142975	77.430209	636.364773	-56.790058	0.362458	0.000000	-0.063418	0.000000	9.032752	0.000000	0.000000	-29.708631	0.000000	
18.858269	-31.175956	146.024611	0.392458	0.017836	0.000000	0.142784	77.252124	641.433194	-57.341416	0.361474	0.000000	-0.063434	0.000000	8.505241	0.000000	0.000000	-30.026657	0.000000	
18.859936	-29.385895	138.878742	0.175784	0.016778	0.000000	0.142588	77.040798	646.469896	-57.871303	0.360502	0.000000	-0.063446	0.000000	7.979759	0.000000	0.000000	-30.332831	0.000000	
18.861597	-27.600978	131.955821	-0.025727	0.015791	0.000000	0.142386	76.797436	651.472576	-58.380229	0.359543	0.000000	-0.063455	0.000000	7.456508	0.000000	0.000000	-30.627521	0.000000	
18.863269	-25.821962	125.234480	-0.211821	0.014888	0.000000	0.142177	76.523259	656.438768	-58.868729	0.358597	0.000000	-0.063460	0.000000	6.935775	0.000000	0.000000	-30.911100	0.000000	
18.864929	-24.049740	118.684209	-0.381951	0.014081	0.000000	0.141960	76.219491	661.365855	-59.337358	0.357664	0.000000	-0.063462	0.000000	6.418011	0.000000	0.000000	-31.183946	0.000000	
18.866599	-22.285618	112.266189	-0.535278	0.013390	0.000000	0.141734	75.887361	666.251072	-59.786687	0.356745	0.000000	-0.063460	0.000000	5.903917	0.000000	0.000000	-31.446435	0.000000	
18.868267	-20.531631	105.935014	-0.670713	0.012832	0.000000	0.141497	75.528101	671.091524	-60.217299	0.355838	0.000000	-0.063456	0.000000	5.394518	0.000000	0.000000	-31.698944	0.000000	
18.869930	-18.790850	99.641336	-0.786976	0.012431	0.000000	0.141247	75.142937	675.884189	-60.629789	0.354945	0.000000	-0.063449	0.000000	4.891236	0.000000	0.000000	-31.941848	0.000000	
18.871603	-17.067691	93.335383	-0.882700	0.012212	0.000000	0.140982	74.733091	680.625934	-61.024756	0.354064	0.000000	-0.063439	0.000000	4.395949	0.000000	0.000000	-32.175516	0.000000	
18.873264	-15.368153	86.971220	-0.956560	0.012208	0.000000	0.140700	74.299776	685.313527	-61.402806	0.353196	0.000000	-0.063427	0.000000	3.911015	0.000000	0.000000	-32.400310	0.000000	
18.874930	-13.699980	80.511486	-1.007423	0.012456	0.000000	0.140397	73.844195	689.943647	-61.764541	0.352341	0.000000	-0.063412	0.000000	3.439266	0.000000	0.000000	-32.616586	0.000000	
18.876602	-12.072705	73.932266	-1.034517	0.012998	0.000000	0.140070	73.367536	694.512898	-62.110565	0.351497	0.000000	-0.063396	0.000000	2.983968	0.000000	0.000000	-32.824686	0.000000	
18.878267	-10.497536	67.227635	-1.037600	0.013887	0.000000	0.139715	72.870971	699.017823	-62.441474	0.350665	0.000000	-0.063377	0.000000	2.548728	0.000000	0.000000	-33.024946	0.000000	
18.879932	-8.987083	60.413360	-1.017109	0.015188	0.000000	0.139326	72.355654	703.454917	-62.757857	0.349845	0.000000	-0.063356	0.000000	2.137358	0.000000	0.000000	-33.217685	0.000000	
18.881596	-7.554892	53.529209	-0.974281	0.016974	0.000000	0.138897	71.822718	707.820641	-63.060292	0.349035	0.000000	-0.063334	0.000000	1.753699	0.000000	0.000000	-33.403211	0.000000	
18.883263	-6.214820	46.639334	-0.911210	0.019342	0.000000	0.138421	71.273274	712.111436	-63.349344	0.348236	0.000000	-0.063310	0.000000	1.401411	0.000000	0.000000	-33.581815	0.000000	
18.884934	-4.980254	39.830335	-0.830844	0.022405	0.000000	0.137888	70.708409	716.323737	-63.625563	0.347446	0.000000	-0.063285	0.000000	1.083737	0.000000	0.000000	-33.753773	0.000000	
18.886600	-3.863238	33.206753	-0.736894	0.026309	0.000000	0.137286	70.129183	720.453987	-63.889481	0.346666	0.000000	-0.063259	0.000000	0.803273	0.000000	0.000000	-33.919345	0.000000	
18.888264	-2.873570	26.884106	-0.633657	0.031236	0.000000	0.136601	69.536632	724.498653	-64.141611	0.345894	0.000000	-0.063231	0.000000	0.561754	0.000000	0.000000	-34.078770	0.000000	
18.889929	-2.017974	20.979931	-0.525765	0.000000	0.000000	0.000000	68.931760	728.454237	-64.382442	0.345130	0.000000	-0.063203	0.000000	0.105488	0.000000	0.000000	-34.232271	0.000000	
18.891602	-1.299425	15.603820	-0.417882	0.000000	0.000000	0.000000	68.315544	732.317291	-64.612443	0.344374	0.000000	-0.063173	0.000000	0.040808	0.000000	0.000000	-34.380052	0.000000	
18.893263	-0.716756	10.847752	-0.314383	0.000000	0.000000	0.000000	67.688931	736.084432	-64.832058	0.343624	0.000000	-0.063144	0.000000	-0.006469	0.000000	0.000000	-34.522296	0.000000	
18.894934	-0.264585	6.778137	-0.219067	0.000000	0.000000	0.000000	67.052835	739.752355	-65.041703	0.342880	0.000000	-0.063113	0.000000	-0.038230	0.000000	0.000000	-34.659167	0.000000	
18.896603	0.066395	3.430606	-0.134936	0.000000	0.000000	0.000000	66.408140	743.317842	-65.241768	0.342141	0.000000	-0.063082	0.000000	-0.056692	0.000000	0.000000	-34.790808	0.000000	
